<svg id="Слой_1" data-name="Слой 1" xmlns="http://www.w3.org/2000/svg" viewBox="0 0 2460.91 363.9"><defs><style>.cls-1{fill:#51b1df;}.cls-2{fill:#3875a8;}</style></defs><title>лого woopcoin</title><path class="cls-1" d="M634.19,1381.24a25.16,25.16,0,1,0,45.82-20.8l-23.1-50.87a25.16,25.16,0,0,0-45.82,20.8l23.1,50.87Z" transform="translate(-470.95 -1294.81)"/><path class="cls-1" d="M1772.76,1521a97.7,97.7,0,0,1-62,32.49,109,109,0,0,1-13,.77,121.81,121.81,0,0,1-47.46-10,163.58,163.58,0,0,1-37.62-22.6c0-34.49,0-104.87-.08-106.17,6.9-15.89,16.78-28.9,29.13-38.54s27.52-16.17,45.87-18.38a99.64,99.64,0,0,1,11.73-.7,98.05,98.05,0,0,1,97.31,86.58,101.8,101.8,0,0,1,.69,11.73,97.89,97.89,0,0,1-24.57,64.81ZM1535,1351.64Zm295.24,34.58a148.6,148.6,0,0,0-130.9-78.65,150.81,150.81,0,0,0-17.67,1,141.25,141.25,0,0,0-70.87,28.67,139.2,139.2,0,0,0-15,13.65,153.37,153.37,0,0,0-12.45-20,117.24,117.24,0,0,0-14.75-16.8,25.16,25.16,0,0,0-33.73,37.32h0l0,0a88.21,88.21,0,0,1,14.25,18.89,100.22,100.22,0,0,1,9.2,21.23,95.9,95.9,0,0,1,4.07,27.75v214.15a25.16,25.16,0,0,0,50.32,0v-51.69a197.1,197.1,0,0,0,18.09,8.77,172.27,172.27,0,0,0,67,13.95,160.64,160.64,0,0,0,18.91-1.12,148.49,148.49,0,0,0,131-147.28,150.86,150.86,0,0,0-1-17.66,148,148,0,0,0-16.38-52.31Z" transform="translate(-470.95 -1294.81)"/><path class="cls-1" d="M1108.14,1327.46a148.06,148.06,0,0,0-93.38-18.66,25.16,25.16,0,0,0,6.52,49.89,98.24,98.24,0,0,1,98.05,49,98.84,98.84,0,0,1,12.75,48.5,98.31,98.31,0,0,1-49.8,85.31,98.73,98.73,0,0,1-48.49,12.75,98.3,98.3,0,0,1-85.32-49.79,98.83,98.83,0,0,1-12.75-48.5,97.56,97.56,0,0,1,13.17-49,98.68,98.68,0,0,1,6.8-10.25,25.16,25.16,0,0,0-40.14-30.34,148.52,148.52,0,1,0,192.59-38.91Z" transform="translate(-470.95 -1294.81)"/><path class="cls-1" d="M879.93,1343a25.16,25.16,0,1,0-40.14-30.34,238.85,238.85,0,0,0-34.52,64h0L748.17,1521l-50.24-88.6a25.16,25.16,0,0,0-43.69-.14l-51.33,89.17-83.4-210.72a25.17,25.17,0,0,0-23.23-15.91h-.37a25.18,25.18,0,0,0-23.19,34.42l102.59,259.2a25.16,25.16,0,0,0,45.19,3.3l55.38-96.19,54.46,96a25.16,25.16,0,0,0,45.28-3.16l76.78-194.21A189.31,189.31,0,0,1,879.93,1343Z" transform="translate(-470.95 -1294.81)"/><path class="cls-1" d="M1444.11,1327.46a148.06,148.06,0,0,0-93.38-18.66,25.16,25.16,0,1,0,6.52,49.89,98.24,98.24,0,0,1,98,49,98.83,98.83,0,0,1,12.75,48.5,98.32,98.32,0,0,1-49.79,85.3,98.77,98.77,0,0,1-48.5,12.75,98.28,98.28,0,0,1-85.31-49.79,98.76,98.76,0,0,1-12.75-48.5,97.56,97.56,0,0,1,13.17-49,98.89,98.89,0,0,1,6.8-10.25,25.16,25.16,0,1,0-40.15-30.34,149.84,149.84,0,0,0-10.23,15.43,148.5,148.5,0,1,0,202.82-54.34Z" transform="translate(-470.95 -1294.81)"/><path class="cls-2" d="M2412.9,1327.46a148.07,148.07,0,0,0-93.38-18.66,25.16,25.16,0,1,0,6.52,49.9,98.23,98.23,0,0,1,98,49,98.82,98.82,0,0,1,12.75,48.5,98.32,98.32,0,0,1-49.79,85.3,98.76,98.76,0,0,1-48.5,12.75,98.28,98.28,0,0,1-85.31-49.79,98.76,98.76,0,0,1-12.75-48.5,97.56,97.56,0,0,1,13.17-49,98.94,98.94,0,0,1,6.8-10.25,25.16,25.16,0,1,0-40.15-30.34,149.92,149.92,0,0,0-10.23,15.43,148.5,148.5,0,1,0,202.82-54.34Z" transform="translate(-470.95 -1294.81)"/><path class="cls-2" d="M2136.08,1506.28h-2.9a24,24,0,0,0-19,9.64,98.36,98.36,0,0,1-176.36-64.69c2.37-49.6,42.81-90.55,92.38-93.5a98.17,98.17,0,0,1,83.75,38.12,24.19,24.19,0,0,0,19,9.69h2.88c19.33,0,30.53-22.07,19-37.57a147.73,147.73,0,0,0-134.23-59c-68.39,7-123.74,61.83-131.35,130.15-9.92,89.05,59.82,164.73,146.9,164.73a147.71,147.71,0,0,0,119-60.21C2166.61,1528.21,2155.31,1506.28,2136.08,1506.28Z" transform="translate(-470.95 -1294.81)"/><path class="cls-2" d="M2580.2,1333.37a25.3,25.3,0,1,0-50.59,0c0,3.06.26,19.7.64,43.36,1,60.06,2.56,160.56,2.49,203.51a25.29,25.29,0,0,0,25.25,25.34h0a25.29,25.29,0,0,0,25.3-25.25c.07-43.39-1.54-144.18-2.49-204.4C2580.46,1352.71,2580.2,1336.38,2580.2,1333.37Z" transform="translate(-470.95 -1294.81)"/><path class="cls-2" d="M2887.89,1342.84c-25.74-24.4-60.36-36.78-97.37-34.73-37.52,2-72.62,17.76-96.92,41.8-7.13-14.36-16.47-27.48-28.14-36.53a25.3,25.3,0,1,0-31,40c13.91,10.8,26.3,46.06,26.3,66.28,0,52.78-.33,108.11-.5,138.36-.07,11.47-.11,19.36-.11,22.19a25.3,25.3,0,0,0,50.59,0c0-2.8,0-10.58.11-21.9.17-30.32.49-85.76.49-138.66,0-1.47-.06-3.06-.14-4.66,1-2.53,3.31-7.89,3.79-9,9.29-21.28,37.73-45.17,78.25-47.35,23.36-1.21,44.06,6,59.85,20.93,18.16,17.21,28.17,43,28.17,72.59v128.12a25.3,25.3,0,0,0,50.59,0V1452.16C2931.85,1408.52,2916.24,1369.71,2887.89,1342.84Z" transform="translate(-470.95 -1294.81)"/></svg>